<svg width="32" height="32" viewBox="0 0 32 32" fill="none" xmlns="http://www.w3.org/2000/svg">
<rect width="32" height="32" rx="4" fill="white"/>
<path d="M12.8633 17.4736C12.1011 17.4736 11.419 17.8233 11.1626 18.3455C11.1321 18.4091 11.1268 18.4828 11.1478 18.5505C11.1688 18.6182 11.2144 18.6745 11.2748 18.7072C11.3111 18.726 11.351 18.7358 11.3915 18.736C11.4388 18.7361 11.4852 18.7225 11.5256 18.6967C11.566 18.6709 11.5988 18.6339 11.6204 18.5898C11.7875 18.2497 12.3071 18.0102 12.8633 18.0102C13.4195 18.0102 13.939 18.2497 14.1084 18.5898C14.1237 18.6214 14.1448 18.6494 14.1704 18.6724C14.1961 18.6953 14.2258 18.7128 14.2579 18.7237C14.29 18.7346 14.3239 18.7388 14.3576 18.7359C14.3912 18.7331 14.424 18.7233 14.454 18.7072C14.515 18.6745 14.5611 18.6177 14.5821 18.5495C14.6031 18.4812 14.5974 18.407 14.5662 18.3431C14.3053 17.8233 13.6186 17.4736 12.8633 17.4736Z" fill="#3F4E65"/>
<path d="M19.351 17.4736C18.5889 17.4736 17.9047 17.8233 17.6507 18.3455C17.635 18.3769 17.6254 18.4112 17.6226 18.4465C17.6197 18.4818 17.6236 18.5174 17.634 18.5511C17.6445 18.5848 17.6613 18.6159 17.6834 18.6428C17.7055 18.6696 17.7325 18.6915 17.7628 18.7072C17.7991 18.726 17.8391 18.7358 17.8795 18.736C17.9268 18.7361 17.9733 18.7225 18.0137 18.6967C18.054 18.6709 18.0868 18.6339 18.1084 18.5898C18.2754 18.2497 18.7949 18.0102 19.351 18.0102C19.907 18.0102 20.4265 18.2497 20.5958 18.5898C20.6111 18.6214 20.6322 18.6494 20.6578 18.6724C20.6835 18.6953 20.7132 18.7128 20.7453 18.7237C20.7774 18.7346 20.8113 18.7388 20.8449 18.7359C20.8785 18.7331 20.9113 18.7233 20.9414 18.7072C21.0019 18.674 21.0476 18.6172 21.0685 18.5492C21.0895 18.4811 21.0841 18.4071 21.0535 18.3431C20.7949 17.8233 20.1107 17.4736 19.351 17.4736Z" fill="#3F4E65"/>
<path d="M28 11.953C27.988 10.2213 27.4124 8.53845 26.3571 7.14909C26.3429 7.1202 26.3232 7.09425 26.2991 7.07267C25.5938 6.14909 24.7364 5.34693 23.7622 4.6991C23.7367 4.67916 23.7099 4.66093 23.682 4.64451V4.64451C22.1719 3.65938 20.4703 2.99033 18.684 2.67927H18.6617C18.6501 2.676 18.6377 2.676 18.626 2.67927V2.67927C18.1802 2.5963 17.7009 2.53734 17.2283 2.49803C17.1926 1.53288 16.9898 0.936762 16.7512 0.56555C16.6783 0.428374 16.5774 0.307371 16.4546 0.210073C16.3319 0.112775 16.1901 0.041266 16.0379 0H15.9777H15.9376C15.7852 0.0413587 15.643 0.112884 15.52 0.210156C15.3969 0.307429 15.2955 0.428382 15.222 0.56555C14.9812 0.936762 14.7761 1.53507 14.7449 2.50022C10.1103 2.88453 6.25153 5.36728 4.71336 8.72565C4.70459 8.74329 4.69714 8.76154 4.69106 8.78024C4.23617 9.78329 4.00077 10.8685 4 11.9661C4 14.5668 5.29073 16.9884 7.63812 18.7942C7.47723 19.8104 7.5776 20.8499 7.93015 21.8185V21.8185C7.3773 23.5654 6.88686 25.7948 7.81869 27.6902C7.81909 27.696 7.81909 27.7018 7.81869 27.7076C8.89318 29.8694 10.9976 30.4546 13.0329 31.018C14.0017 31.2485 14.9448 31.5725 15.8484 31.9853L15.8796 31.9984H15.8997C15.9204 32.0005 15.9414 32.0005 15.9621 31.9984H15.9955C16.036 31.9988 16.0759 31.9891 16.1115 31.97C17.0152 31.5526 17.9591 31.2242 18.9292 30.9896C20.0884 30.6686 21.2722 30.3345 22.2731 29.7166L22.3021 29.6969C23.0978 29.2079 23.7362 28.5085 24.1434 27.6793C25.0864 25.7817 24.5893 23.5806 24.0676 21.8753C24.0639 21.8633 24.0578 21.8522 24.0498 21.8425C24.5803 20.5804 24.4332 19.2222 24.3641 18.768C26.7093 16.9709 28 14.5537 28 11.953ZM27.4984 11.953C27.4979 12.6595 27.3951 13.3623 27.193 14.0405C26.8366 13.3287 26.378 12.6706 25.8309 12.0862C24.8166 10.9944 23.0221 9.64713 20.1107 9.1187C22.0207 8.4043 23.9958 7.86982 26.0093 7.52249C26.9649 8.81125 27.4855 10.3602 27.4984 11.953V11.953ZM25.6771 7.08358C23.0602 7.54506 20.5134 8.32939 18.0977 9.41785C17.9417 8.17975 17.3799 7.20586 16.6353 6.84994C16.6599 6.76259 16.6799 6.67962 16.7 6.59664C18.9149 5.86782 21.2033 5.37441 23.5259 5.1249C24.3357 5.67276 25.0602 6.33248 25.6771 7.08358V7.08358ZM22.7591 22.8448L22.6253 22.9605C22.1477 23.3265 21.586 23.5724 20.989 23.6767H20.9601H20.9132H20.8999C19.6537 23.8951 18.0398 23.7313 16.0758 23.1658H16.049H15.951H15.9309C15.0363 23.4335 14.1184 23.6199 13.1889 23.7226H13.1488C11.4078 23.8885 10.097 23.5872 9.23425 22.8142C8.23333 21.9582 8.04607 20.6153 8.04607 19.707C8.46994 20.4887 9.1025 21.143 9.87628 21.6001C11.1581 22.3426 12.7743 22.4736 14.6847 22.0172C14.8082 22.2495 14.9946 22.4442 15.2234 22.5797C15.4523 22.7153 15.7147 22.7866 15.9822 22.7858V22.7858C16.2493 22.7867 16.5115 22.7154 16.74 22.5798C16.9685 22.4442 17.1544 22.2495 17.2774 22.0172C19.1878 22.4823 20.8062 22.3426 22.0858 21.6001C22.8607 21.1443 23.4935 20.4896 23.916 19.707C23.9339 20.6153 23.7466 21.9582 22.7591 22.8448ZM21.6444 29.5331C20.7797 29.9518 19.8707 30.2762 18.9337 30.5005C18.5063 30.1032 18.1392 29.648 17.8436 29.1488C17.3977 28.3649 17.6207 27.5024 17.9528 26.6857C18.0085 26.546 18.0754 26.3953 18.1468 26.2381C18.4187 25.6332 18.7442 24.9039 18.6327 24.2292C18.9982 24.2724 19.3659 24.295 19.734 24.2969C20.1035 24.2981 20.4725 24.2703 20.8375 24.2139C20.9779 24.6026 20.7773 25.2708 20.5967 25.8712C20.4432 26.2857 20.3509 26.7195 20.3225 27.1596C20.3219 27.632 20.4427 28.0971 20.6737 28.5119C20.9047 28.9266 21.2385 29.2778 21.6444 29.5331ZM15.9978 31.4984C15.6366 31.2363 14.386 30.2253 14.1453 28.5723C13.9223 27.07 14.58 25.4367 16.0825 23.7138C16.7459 23.8998 17.4204 24.0457 18.1022 24.1506V24.1506C18.2805 24.7052 17.9662 25.4061 17.6875 26.0285C17.614 26.1944 17.5449 26.3516 17.4869 26.4979C17.1191 27.426 16.8538 28.4173 17.4066 29.3803C17.677 29.8394 18.0042 30.2641 18.3808 30.6446C17.5611 30.8581 16.7627 31.1439 15.9955 31.4984H15.9978ZM21.8361 21.1852C20.6368 21.8796 19.0808 21.9844 17.2216 21.4997C17.1889 21.4891 17.1542 21.4852 17.1199 21.4884C17.0855 21.4916 17.0522 21.5017 17.022 21.5181C16.9919 21.5345 16.9655 21.5569 16.9446 21.5838C16.9237 21.6107 16.9087 21.6415 16.9006 21.6744C16.8348 21.8577 16.7122 22.0164 16.55 22.1284C16.3878 22.2403 16.194 22.2999 15.9955 22.2989C15.7955 22.3004 15.6001 22.24 15.4371 22.1263C15.2742 22.0126 15.1521 21.8513 15.0882 21.6656C15.0798 21.6341 15.0647 21.6046 15.044 21.579C15.0232 21.5535 14.9973 21.5324 14.9679 21.5172C14.936 21.5004 14.901 21.4902 14.8649 21.4872C14.8289 21.4842 14.7926 21.4884 14.7583 21.4997C12.9036 21.9823 11.3543 21.8774 10.1527 21.1852C9.21181 20.6162 8.50848 19.7376 8.16868 18.7069C8.37154 18.3051 9.36578 16.4796 11.5995 14.3571C11.838 14.2218 14.8698 12.5972 20.3961 14.3702C22.6142 16.4818 23.6262 18.3269 23.8246 18.709C23.4804 19.7371 22.775 20.6122 21.8339 21.1787L21.8361 21.1852ZM14.3548 10.1188C14.3548 8.86758 14.8207 7.76705 15.4538 7.36308C15.5227 7.31523 15.5977 7.27633 15.6768 7.24735C15.7555 7.2183 15.8381 7.20065 15.922 7.19495H16.0156C16.1008 7.19689 16.1851 7.21237 16.2653 7.2408C16.3438 7.2663 16.4188 7.30153 16.4882 7.34562C17.0522 7.68844 17.4891 8.58153 17.5894 9.64494C17.6068 9.80231 17.615 9.96051 17.614 10.1188C17.614 10.145 17.614 10.1734 17.614 10.2018C17.6101 10.6075 17.5532 11.0111 17.4445 11.4027C17.3971 11.5653 17.3398 11.725 17.2729 11.8809C16.9719 12.5819 16.5016 13.0426 15.9799 13.0426C15.4583 13.0426 14.9879 12.5841 14.687 11.8831C14.615 11.7205 14.5561 11.5526 14.5109 11.3809C14.4013 10.969 14.3488 10.5444 14.3548 10.1188V10.1188ZM14.8832 13.0535C14.129 13.0869 13.3811 13.2041 12.6539 13.4029V13.4029C13.1332 13.0033 13.6704 12.5906 14.2634 12.1757C14.4126 12.5034 14.6228 12.8011 14.8832 13.0535V13.0535ZM17.021 13.1234C17.3167 12.859 17.5516 12.536 17.7098 12.1757C18.3786 12.6496 18.9983 13.1321 19.5512 13.606C18.7215 13.3823 17.8757 13.221 17.021 13.1234ZM16.8137 6.03764C17.0092 5.166 17.1388 4.28143 17.2016 3.39112C17.6474 3.30596 18.1044 3.22517 18.5748 3.15093C20.0818 3.41777 21.5282 3.94573 22.846 4.71002C20.7972 4.96653 18.7776 5.41102 16.8137 6.03764V6.03764ZM15.6077 0.851601C15.6899 0.693721 15.8179 0.563087 15.9755 0.476022C16.1325 0.563796 16.2603 0.694243 16.3433 0.851601C16.5083 1.12455 16.6777 1.60931 16.7134 2.44563C16.7134 2.59848 16.7134 2.76225 16.7134 2.93912V2.98934C16.7134 3.14875 16.7 3.3147 16.6888 3.49812C16.608 4.41591 16.459 5.3267 16.243 6.22325C16.2073 6.38265 16.1716 6.54423 16.1315 6.71237C16.0799 6.70447 16.0277 6.70082 15.9755 6.70146C15.9143 6.70248 15.8533 6.70686 15.7927 6.71456C15.7682 6.61193 15.7414 6.51148 15.7191 6.40885C15.5141 5.55658 15.3651 4.69228 15.2733 3.82129C15.2554 3.6466 15.2421 3.48065 15.2354 3.32343C15.2287 3.16621 15.222 3.0614 15.2198 2.93912C15.2198 2.76225 15.2198 2.59848 15.2198 2.44781C15.2733 1.60931 15.4449 1.12455 15.6077 0.851601V0.851601ZM14.7338 2.97406C14.7338 3.12472 14.7449 3.28413 14.7561 3.4479C10.1817 4.66634 7.35055 6.46563 5.91046 7.59673C7.67602 5.08778 10.9285 3.3016 14.7338 2.97406ZM5.13245 8.96584C5.30856 8.78024 6.29834 7.77578 8.25339 6.63158C10.3024 5.45529 12.5039 4.55483 14.7984 3.95449C14.9005 4.84213 15.0568 5.72297 15.2666 6.59228C12.792 7.52111 10.5074 8.8767 8.5209 10.5948C6.51458 12.3766 5.49359 14.0362 5.08118 14.8353C4.68099 13.9055 4.4793 12.9053 4.4885 11.8963C4.4977 10.8872 4.7176 9.89071 5.13468 8.96803L5.13245 8.96584ZM5.35537 15.4118C5.66747 14.7218 7.9034 10.2389 14.736 7.33251C14.1988 7.94829 13.8555 8.95492 13.8555 10.1166C13.8502 10.6443 13.9253 11.1697 14.0784 11.6757C10.1103 14.4139 8.30243 17.3771 7.80531 18.2963C6.79282 17.5115 5.95779 16.5293 5.35315 15.4118H5.35537ZM8.25339 22.4474C8.43099 22.7263 8.64536 22.981 8.89095 23.2051C9.30801 23.5745 9.80148 23.8516 10.3377 24.0174V24.0174C9.81295 24.1801 9.33066 24.4528 8.92439 24.8166C8.42807 25.2846 8.08312 25.8853 7.93238 26.5438C7.60022 25.1943 7.87442 23.7226 8.24224 22.4474H8.25339ZM8.30243 27.533C8.4451 24.2314 11.5995 24.2816 11.7377 24.286C11.7612 24.2868 11.7847 24.2831 11.8068 24.275V24.275C11.974 24.275 12.1456 24.2881 12.3195 24.275C11.2852 25.0742 10.6587 26.0001 10.4581 27.0373C10.2954 27.9719 10.4398 28.933 10.8705 29.7821C9.80048 29.3344 8.88204 28.6859 8.29129 27.533H8.30243ZM11.6129 30.0681C11.4278 29.7908 10.6788 28.5592 10.9597 27.1334C11.1826 26.0263 11.9562 25.0502 13.2736 24.2314C13.9597 24.1591 14.6393 24.0364 15.3067 23.8645C13.9892 25.5306 13.4297 27.1399 13.6526 28.6422C13.789 29.5152 14.1702 30.3339 14.7539 31.0071C14.23 30.828 13.695 30.6795 13.1689 30.5332C12.6428 30.3869 12.1055 30.2384 11.6129 30.0681ZM22.1416 29.2318C21.7471 29.0357 21.4158 28.7365 21.1845 28.3672C20.9531 27.998 20.8307 27.5732 20.8308 27.1399C20.863 26.7515 20.9477 26.3689 21.0827 26.0023C21.2878 25.3297 21.4951 24.6375 21.3413 24.1091C21.7552 24.0105 22.1518 23.8523 22.5183 23.6396V23.6396C22.5183 25.5241 23.5772 26.3342 24.0186 26.5918C23.9433 26.8999 23.8349 27.1992 23.6953 27.4849C23.3439 28.194 22.8042 28.7974 22.1326 29.2318H22.1416ZM24.1233 26.0678C23.6886 25.7555 22.9218 24.9585 23.0377 23.2662L23.109 23.2051C23.3464 22.9917 23.554 22.7487 23.7265 22.4823C24.0342 23.5872 24.2861 24.8537 24.1144 26.0678H24.1233ZM24.1791 18.3029C23.6909 17.3989 21.8896 14.4467 17.9015 11.6975C18.0628 11.1863 18.1425 10.6538 18.1378 10.1188C18.1378 10.0664 18.1378 10.0118 18.1378 9.96156C18.4878 9.79561 18.849 9.63402 19.2213 9.48335C22.4693 9.8633 24.402 11.2761 25.452 12.4006C26.0982 13.0781 26.6086 13.8684 26.9567 14.7305C26.3568 16.1362 25.3971 17.3666 24.1702 18.3029H24.1791Z" fill="#3F4E65"/>
</svg>
