<svg width="23" height="17" viewBox="0 0 23 17" fill="none" xmlns="http://www.w3.org/2000/svg">
<path d="M22.6368 3.49241C22.4956 3.29518 22.3062 3.19656 22.0684 3.19656H6.93274L6.52195 2.12711C6.41793 1.77648 6.27675 1.47698 6.09842 1.22862C5.92009 0.980253 5.73062 0.804938 5.53 0.702671C5.32938 0.600403 5.15476 0.531007 5.00616 0.494483C4.85755 0.457959 4.70894 0.439697 4.56033 0.439697H1.50645C1.31326 0.439697 1.1498 0.505441 1.01605 0.636927C0.882303 0.768414 0.81543 0.936425 0.81543 1.14096C0.81543 1.25784 0.845151 1.37106 0.904594 1.48063C0.964037 1.59021 1.04949 1.67421 1.16094 1.73265C1.2724 1.79109 1.38757 1.82031 1.50645 1.82031H4.56033C4.61978 1.82031 4.6755 1.82761 4.72752 1.84222C4.77953 1.85683 4.85012 1.91892 4.93928 2.02849C5.02845 2.13807 5.10275 2.30242 5.16219 2.52157L8.35937 11.3005C8.3891 11.3882 8.43739 11.4722 8.50427 11.5525C8.57114 11.6329 8.64916 11.695 8.73832 11.7388C8.82749 11.7826 8.92408 11.8045 9.02811 11.8045H18.6579C18.8065 11.8045 18.9439 11.7607 19.0702 11.673C19.1966 11.5854 19.282 11.4758 19.3266 11.3443L22.7371 4.13888C22.8114 3.90513 22.778 3.68964 22.6368 3.49241ZM18.1675 10.402H9.58538L7.31169 4.59908H21.043L18.1675 10.402ZM16.882 12.565C16.3916 12.565 15.9718 12.7367 15.6226 13.08C15.2733 13.4234 15.0987 13.8361 15.0987 14.3182C15.0987 14.8003 15.2733 15.2131 15.6226 15.5564C15.9718 15.8997 16.3916 16.0714 16.882 16.0714C17.3724 16.0714 17.7922 15.8997 18.1415 15.5564C18.4907 15.2131 18.6653 14.8003 18.6653 14.3182C18.6653 13.8361 18.4907 13.4234 18.1415 13.08C17.7922 12.7367 17.3724 12.565 16.882 12.565ZM10.4622 12.565C10.1352 12.565 9.8343 12.6454 9.55938 12.8061C9.28445 12.9668 9.06897 13.1787 8.91294 13.4416C8.7569 13.7046 8.67888 13.9968 8.67888 14.3182C8.67888 14.8003 8.85349 15.2131 9.20272 15.5564C9.55195 15.8997 9.97176 16.0714 10.4622 16.0714C10.9526 16.0714 11.3724 15.8997 11.7216 15.5564C12.0708 15.2131 12.2455 14.8003 12.2455 14.3182C12.2455 14.2013 12.2343 14.0845 12.212 13.9676C12.1897 13.8507 12.1563 13.7411 12.1117 13.6389C12.0671 13.5366 12.0114 13.438 11.9445 13.343C11.8777 13.2481 11.8033 13.1604 11.7216 13.08C11.6399 12.9997 11.5507 12.9266 11.4541 12.8609C11.3575 12.7951 11.2572 12.7404 11.1532 12.6965C11.0492 12.6527 10.9377 12.6198 10.8188 12.5979C10.6999 12.576 10.5811 12.565 10.4622 12.565Z" fill="#3F4E65"/>
</svg>
