<svg width="61" height="39" viewBox="0 0 61 39" fill="none" xmlns="http://www.w3.org/2000/svg">
<rect width="60.9375" height="39" rx="3" fill="#0F3560"/>
<path d="M35.5648 29.12H24.8623V9.88574H35.5648V29.12Z" fill="#FF5F00"/>
<path d="M25.5483 19.5008C25.5483 15.5991 27.3752 12.1235 30.22 9.88367C28.1397 8.24582 25.5141 7.26824 22.6607 7.26824C15.9055 7.26824 10.4297 12.7449 10.4297 19.5008C10.4297 26.2568 15.9055 31.7334 22.6607 31.7334C25.5141 31.7334 28.1397 30.7558 30.22 29.118C27.3752 26.8782 25.5483 23.4026 25.5483 19.5008Z" fill="#EB001B"/>
<path d="M50.0001 19.5008C50.0001 26.2568 44.5243 31.7334 37.7691 31.7334C34.9157 31.7334 32.2901 30.7558 30.209 29.118C33.0546 26.8782 34.8815 23.4026 34.8815 19.5008C34.8815 15.5991 33.0546 12.1235 30.209 9.88367C32.2901 8.24582 34.9157 7.26824 37.7691 7.26824C44.5243 7.26824 50.0001 12.7449 50.0001 19.5008Z" fill="#F79E1B"/>
<path d="M19.6333 19.5784C19.6333 19.0441 19.9834 18.6051 20.5556 18.6051C21.1023 18.6051 21.4713 19.0252 21.4713 19.5784C21.4713 20.1317 21.1023 20.5517 20.5556 20.5517C19.9834 20.5517 19.6333 20.1127 19.6333 19.5784ZM22.0945 19.5784V18.0584H21.4335V18.4275C21.2238 18.1538 20.9057 17.982 20.4733 17.982C19.6209 17.982 18.9526 18.6503 18.9526 19.5784C18.9526 20.5073 19.6209 21.1748 20.4733 21.1748C20.9057 21.1748 21.2238 21.003 21.4335 20.7293V21.0984H22.0945V19.5784ZM44.4309 19.5784C44.4309 19.0441 44.7811 18.6051 45.3532 18.6051C45.9006 18.6051 46.269 19.0252 46.269 19.5784C46.269 20.1317 45.9006 20.5517 45.3532 20.5517C44.7811 20.5517 44.4309 20.1127 44.4309 19.5784ZM46.8928 19.5784V16.8377H46.2311V18.4275C46.0215 18.1538 45.7034 17.982 45.271 17.982C44.4185 17.982 43.7503 18.6503 43.7503 19.5784C43.7503 20.5073 44.4185 21.1748 45.271 21.1748C45.7034 21.1748 46.0215 21.003 46.2311 20.7293V21.0984H46.8928V19.5784ZM30.2992 18.5738C30.7251 18.5738 30.9988 18.841 31.0686 19.3113H29.4912C29.5618 18.8723 29.8282 18.5738 30.2992 18.5738ZM30.3123 17.982C29.4213 17.982 28.7982 18.6306 28.7982 19.5784C28.7982 20.5451 29.4468 21.1748 30.3567 21.1748C30.8146 21.1748 31.2339 21.0605 31.603 20.749L31.279 20.259C31.0242 20.4621 30.6996 20.5772 30.3946 20.5772C29.9687 20.5772 29.5807 20.3799 29.4854 19.8325H31.7427C31.7493 19.7502 31.7558 19.6672 31.7558 19.5784C31.7493 18.6306 31.164 17.982 30.3123 17.982ZM38.2936 19.5784C38.2936 19.0441 38.6437 18.6051 39.2159 18.6051C39.7626 18.6051 40.1316 19.0252 40.1316 19.5784C40.1316 20.1317 39.7626 20.5517 39.2159 20.5517C38.6437 20.5517 38.2936 20.1127 38.2936 19.5784ZM40.7548 19.5784V18.0584H40.0938V18.4275C39.8834 18.1538 39.566 17.982 39.1336 17.982C38.2812 17.982 37.6129 18.6503 37.6129 19.5784C37.6129 20.5073 38.2812 21.1748 39.1336 21.1748C39.566 21.1748 39.8834 21.003 40.0938 20.7293V21.0984H40.7548V19.5784ZM34.5606 19.5784C34.5606 20.5007 35.2027 21.1748 36.1825 21.1748C36.6404 21.1748 36.9454 21.0729 37.2759 20.8123L36.9585 20.278C36.7103 20.4563 36.4497 20.5517 36.1628 20.5517C35.6351 20.5451 35.2471 20.1637 35.2471 19.5784C35.2471 18.9931 35.6351 18.6117 36.1628 18.6051C36.4497 18.6051 36.7103 18.7005 36.9585 18.8788L37.2759 18.3445C36.9454 18.0839 36.6404 17.982 36.1825 17.982C35.2027 17.982 34.5606 18.6561 34.5606 19.5784ZM43.0827 17.982C42.7013 17.982 42.4531 18.1604 42.2813 18.4275V18.0584H41.6261V21.0984H42.2878V19.3942C42.2878 18.8912 42.504 18.6117 42.9364 18.6117C43.0704 18.6117 43.2101 18.6306 43.3499 18.6881L43.5537 18.065C43.4074 18.0075 43.2167 17.982 43.0827 17.982ZM25.3637 18.3001C25.0456 18.0905 24.6074 17.982 24.124 17.982C23.3538 17.982 22.8581 18.3511 22.8581 18.9553C22.8581 19.451 23.2272 19.7568 23.9071 19.8521L24.2194 19.8965C24.5819 19.9475 24.7529 20.0428 24.7529 20.2146C24.7529 20.4498 24.5113 20.5837 24.0599 20.5837C23.6021 20.5837 23.2716 20.4374 23.0488 20.2656L22.7373 20.7803C23.0998 21.0474 23.5577 21.1748 24.0534 21.1748C24.9313 21.1748 25.4401 20.7613 25.4401 20.1826C25.4401 19.6483 25.0398 19.3688 24.3781 19.2734L24.0665 19.2283C23.7804 19.1904 23.5511 19.1336 23.5511 18.9298C23.5511 18.7071 23.7673 18.5738 24.1298 18.5738C24.5178 18.5738 24.8934 18.7202 25.0776 18.8344L25.3637 18.3001ZM33.8924 17.982C33.5109 17.982 33.2627 18.1604 33.0916 18.4275V18.0584H32.4365V21.0984H33.0974V19.3942C33.0974 18.8912 33.3136 18.6117 33.7461 18.6117C33.88 18.6117 34.0198 18.6306 34.1595 18.6881L34.3634 18.065C34.217 18.0075 34.0263 17.982 33.8924 17.982ZM28.2515 18.0584H27.1705V17.1361H26.5022V18.0584H25.8856V18.6626H26.5022V20.0494C26.5022 20.7548 26.7759 21.1748 27.5577 21.1748C27.8446 21.1748 28.175 21.086 28.3847 20.9397L28.194 20.3733C27.9967 20.4876 27.7805 20.5451 27.6087 20.5451C27.2782 20.5451 27.1705 20.3413 27.1705 20.0363V18.6626H28.2515V18.0584ZM18.3681 21.0984V19.1904C18.3681 18.4719 17.9102 17.9886 17.1721 17.982C16.7841 17.9755 16.3837 18.0963 16.1034 18.5229C15.8938 18.1858 15.5633 17.982 15.0989 17.982C14.7742 17.982 14.4568 18.0774 14.2086 18.4333V18.0584H13.5469V21.0984H14.2144V19.4132C14.2144 18.8854 14.507 18.6051 14.9591 18.6051C15.3981 18.6051 15.6201 18.8912 15.6201 19.4066V21.0984H16.2883V19.4132C16.2883 18.8854 16.5933 18.6051 17.0323 18.6051C17.4836 18.6051 17.6998 18.8912 17.6998 19.4066V21.0984H18.3681Z" fill="white"/>
</svg>
